<?xml version="1.0" encoding="UTF-8" standalone="no"?>
<!DOCTYPE svg PUBLIC "-//W3C//DTD SVG 1.1//EN" "http://www.w3.org/Graphics/SVG/1.1/DTD/svg11.dtd">
<!-- Generated by graphviz version 2.40.1 (20161225.0304)
 -->
<!-- Title: egraph Pages: 1 -->
<svg width="427pt" height="310pt" viewBox="0.00 0.00 427.00 310.40" xmlns="http://www.w3.org/2000/svg" xmlns:xlink="http://www.w3.org/1999/xlink">
<g id="graph0" class="graph" transform="scale(1 1) rotate(0) translate(4 306.4)">
<title>egraph</title>
<polygon fill="#ffffff" stroke="transparent" points="-4,4 -4,-306.4 423,-306.4 423,4 -4,4"/>
<g id="clust1" class="cluster">
<title>cluster_colored_0</title>
<polygon fill="none" stroke="#ff0000" points="8,-201.6 8,-294.4 184,-294.4 184,-201.6 8,-201.6"/>
</g>
<g id="clust2" class="cluster">
<title>cluster_0</title>
<polygon fill="none" stroke="#000000" stroke-dasharray="1,5" points="102,-209.6 102,-286.4 176,-286.4 176,-209.6 102,-209.6"/>
<text text-anchor="middle" x="139" y="-269.8" font-family="Times,serif" font-size="14.00" fill="#000000">0</text>
</g>
<g id="clust3" class="cluster">
<title>cluster_8</title>
<polygon fill="none" stroke="#000000" stroke-dasharray="1,5" points="16,-209.6 16,-286.4 94,-286.4 94,-209.6 16,-209.6"/>
<text text-anchor="middle" x="55" y="-269.8" font-family="Times,serif" font-size="14.00" fill="#000000">8</text>
</g>
<g id="clust4" class="cluster">
<title>cluster_colored_1</title>
<polygon fill="none" stroke="#ff0000" points="135,-8 135,-193.6 223,-193.6 223,-8 135,-8"/>
</g>
<g id="clust5" class="cluster">
<title>cluster_1</title>
<polygon fill="none" stroke="#000000" stroke-dasharray="1,5" points="145,-16 145,-92.8 215,-92.8 215,-16 145,-16"/>
<text text-anchor="middle" x="180" y="-76.2" font-family="Times,serif" font-size="14.00" fill="#000000">1</text>
</g>
<g id="clust6" class="cluster">
<title>cluster_3</title>
<polygon fill="none" stroke="#000000" stroke-dasharray="1,5" points="143,-108.8 143,-185.6 215,-185.6 215,-108.8 143,-108.8"/>
<text text-anchor="middle" x="179" y="-169" font-family="Times,serif" font-size="14.00" fill="#000000">3</text>
</g>
<g id="clust7" class="cluster">
<title>cluster_colored_2</title>
<polygon fill="none" stroke="#ff0000" points="231,-8 231,-193.6 317,-193.6 317,-8 231,-8"/>
</g>
<g id="clust8" class="cluster">
<title>cluster_2</title>
<polygon fill="none" stroke="#000000" stroke-dasharray="1,5" points="239,-16 239,-92.8 309,-92.8 309,-16 239,-16"/>
<text text-anchor="middle" x="274" y="-76.2" font-family="Times,serif" font-size="14.00" fill="#000000">2</text>
</g>
<g id="clust9" class="cluster">
<title>cluster_4</title>
<polygon fill="none" stroke="#000000" stroke-dasharray="1,5" points="239,-108.8 239,-185.6 309,-185.6 309,-108.8 239,-108.8"/>
<text text-anchor="middle" x="274" y="-169" font-family="Times,serif" font-size="14.00" fill="#000000">4</text>
</g>
<g id="clust10" class="cluster">
<title>cluster_colored_6</title>
<polygon fill="none" stroke="#ff0000" points="325,-100.8 325,-294.4 411,-294.4 411,-100.8 325,-100.8"/>
</g>
<g id="clust11" class="cluster">
<title>cluster_6</title>
<polygon fill="none" stroke="#000000" stroke-dasharray="1,5" points="333,-108.8 333,-185.6 403,-185.6 403,-108.8 333,-108.8"/>
<text text-anchor="middle" x="368" y="-169" font-family="Times,serif" font-size="14.00" fill="#000000">6</text>
</g>
<g id="clust12" class="cluster">
<title>cluster_7</title>
<polygon fill="none" stroke="#000000" stroke-dasharray="1,5" points="333,-209.6 333,-286.4 403,-286.4 403,-209.6 333,-209.6"/>
<text text-anchor="middle" x="368" y="-269.8" font-family="Times,serif" font-size="14.00" fill="#000000">7</text>
</g>
<g id="clust13" class="cluster">
<title>cluster_5</title>
<polygon fill="none" stroke="#000000" stroke-dasharray="1,5" points="192,-209.6 192,-286.4 262,-286.4 262,-209.6 192,-209.6"/>
<text text-anchor="middle" x="227" y="-269.8" font-family="Times,serif" font-size="14.00" fill="#000000">5</text>
</g>
<!-- 0.0 -->
<g id="node1" class="node">
<title>0.0</title>
<ellipse fill="none" stroke="#000000" cx="139" cy="-235.6" rx="29.0299" ry="18"/>
<text text-anchor="middle" x="139" y="-231.4" font-family="Times,serif" font-size="14.00" fill="#000000">false</text>
</g>
<!-- 8.0 -->
<g id="node2" class="node">
<title>8.0</title>
<ellipse fill="none" stroke="#000000" cx="55" cy="-235.6" rx="30.935" ry="18"/>
<text text-anchor="middle" x="55" y="-231.4" font-family="Times,serif" font-size="14.00" fill="#000000">x &lt; y</text>
</g>
<!-- 1.0 -->
<g id="node3" class="node">
<title>1.0</title>
<ellipse fill="none" stroke="#000000" cx="180" cy="-42" rx="27" ry="18"/>
<text text-anchor="middle" x="180" y="-37.8" font-family="Times,serif" font-size="14.00" fill="#000000">x</text>
</g>
<!-- 3.0 -->
<g id="node4" class="node">
<title>3.0</title>
<ellipse fill="none" stroke="#000000" cx="179" cy="-134.8" rx="27.8286" ry="18"/>
<text text-anchor="middle" x="179" y="-130.6" font-family="Times,serif" font-size="14.00" fill="#000000">max</text>
</g>
<!-- 3.0&#45;&gt;1.0 -->
<g id="edge1" class="edge">
<title>3.0:sw-&gt;1.0</title>
<path fill="none" stroke="#000000" d="M164,-119.8C159.2144,-115.0144 156.8519,-109.2043 156.1592,-102.9383"/>
<polygon fill="#000000" stroke="#000000" points="159.661,-102.8581 156.3368,-92.7983 152.6621,-102.7354 159.661,-102.8581"/>
</g>
<!-- 2.0 -->
<g id="node5" class="node">
<title>2.0</title>
<ellipse fill="none" stroke="#000000" cx="274" cy="-42" rx="27" ry="18"/>
<text text-anchor="middle" x="274" y="-37.8" font-family="Times,serif" font-size="14.00" fill="#000000">y</text>
</g>
<!-- 3.0&#45;&gt;2.0 -->
<g id="edge2" class="edge">
<title>3.0:se-&gt;2.0</title>
<path fill="none" stroke="#000000" d="M194,-119.8C206.099,-107.701 219.3715,-94.6904 231.5678,-82.8371"/>
<polygon fill="#000000" stroke="#000000" points="234.2618,-85.0999 239.0025,-75.6248 229.3878,-80.0755 234.2618,-85.0999"/>
</g>
<!-- 4.0 -->
<g id="node6" class="node">
<title>4.0</title>
<ellipse fill="none" stroke="#000000" cx="274" cy="-134.8" rx="27" ry="18"/>
<text text-anchor="middle" x="274" y="-130.6" font-family="Times,serif" font-size="14.00" fill="#000000">min</text>
</g>
<!-- 4.0&#45;&gt;1.0 -->
<g id="edge3" class="edge">
<title>4.0:sw-&gt;1.0</title>
<path fill="none" stroke="#000000" d="M259,-119.8C247.1308,-107.9308 234.1815,-95.1207 222.265,-83.3878"/>
<polygon fill="#000000" stroke="#000000" points="224.5813,-80.7568 214.9977,-76.2397 219.6727,-85.7474 224.5813,-80.7568"/>
</g>
<!-- 4.0&#45;&gt;2.0 -->
<g id="edge4" class="edge">
<title>4.0:se-&gt;2.0</title>
<path fill="none" stroke="#000000" d="M289,-119.8C293.7782,-115.0218 296.1703,-109.2126 296.916,-102.9441"/>
<polygon fill="#000000" stroke="#000000" points="300.4149,-102.7707 296.8391,-92.7975 293.4151,-102.8238 300.4149,-102.7707"/>
</g>
<!-- 6.0 -->
<g id="node7" class="node">
<title>6.0</title>
<ellipse fill="none" stroke="#000000" cx="368" cy="-134.8" rx="27" ry="18"/>
<text text-anchor="middle" x="368" y="-130.6" font-family="Times,serif" font-size="14.00" fill="#000000">-</text>
</g>
<!-- 6.0&#45;&gt;1.0 -->
<g id="edge7" class="edge">
<title>6.0:sw-&gt;1.0</title>
<path fill="none" stroke="#000000" d="M353,-119.8C339.0831,-105.8831 331.9535,-106.1033 313,-100.8 279.4404,-91.4099 266.7632,-107.1359 235,-92.8 230.9224,-90.9596 226.9471,-88.6959 223.1203,-86.156"/>
<polygon fill="#000000" stroke="#000000" points="225.1347,-83.293 214.9979,-80.2114 221.0005,-88.9418 225.1347,-83.293"/>
</g>
<!-- 6.0&#45;&gt;2.0 -->
<g id="edge8" class="edge">
<title>6.0:se-&gt;2.0</title>
<path fill="none" stroke="#000000" d="M383,-119.8C409.5235,-93.2765 359.3236,-69.284 318.5709,-55.1667"/>
<polygon fill="#000000" stroke="#000000" points="319.59,-51.8171 308.9962,-51.9656 317.3704,-58.4559 319.59,-51.8171"/>
</g>
<!-- 7.0 -->
<g id="node8" class="node">
<title>7.0</title>
<ellipse fill="none" stroke="#000000" cx="368" cy="-235.6" rx="27" ry="18"/>
<text text-anchor="middle" x="368" y="-231.4" font-family="Times,serif" font-size="14.00" fill="#000000">abs</text>
</g>
<!-- 7.0&#45;&gt;6.0 -->
<g id="edge9" class="edge">
<title>7.0-&gt;6.0</title>
<path fill="none" stroke="#000000" d="M368,-217.579C368,-211.2205 368,-203.6696 368,-195.7552"/>
<polygon fill="#000000" stroke="#000000" points="371.5001,-195.5981 368,-185.5982 364.5001,-195.5982 371.5001,-195.5981"/>
</g>
<!-- 5.0 -->
<g id="node9" class="node">
<title>5.0</title>
<ellipse fill="none" stroke="#000000" cx="227" cy="-235.6" rx="27" ry="18"/>
<text text-anchor="middle" x="227" y="-231.4" font-family="Times,serif" font-size="14.00" fill="#000000">-</text>
</g>
<!-- 5.0&#45;&gt;3.0 -->
<g id="edge5" class="edge">
<title>5.0:sw-&gt;3.0</title>
<path fill="none" stroke="#000000" d="M212,-220.6C204.7929,-213.3929 199.128,-204.4421 194.6843,-195.0661"/>
<polygon fill="#000000" stroke="#000000" points="197.7854,-193.416 190.6358,-185.5971 191.349,-196.1679 197.7854,-193.416"/>
</g>
<!-- 5.0&#45;&gt;4.0 -->
<g id="edge6" class="edge">
<title>5.0:se-&gt;4.0</title>
<path fill="none" stroke="#000000" d="M242,-220.6C249.1885,-213.4115 254.7824,-204.4609 259.1298,-195.0769"/>
<polygon fill="#000000" stroke="#000000" points="262.4638,-196.175 263.0746,-185.5978 256.0011,-193.4854 262.4638,-196.175"/>
</g>
</g>
</svg>