<?xml version="1.0" encoding="UTF-8" standalone="no"?>
<!DOCTYPE svg PUBLIC "-//W3C//DTD SVG 1.1//EN" "http://www.w3.org/Graphics/SVG/1.1/DTD/svg11.dtd">
<!-- Generated by graphviz version 2.40.1 (20161225.0304)
 -->
<!-- Title: egraph Pages: 1 -->
<svg width="466pt" height="310pt" viewBox="0.00 0.00 466.00 310.40" xmlns="http://www.w3.org/2000/svg" xmlns:xlink="http://www.w3.org/1999/xlink">
<g id="graph0" class="graph" transform="scale(1 1) rotate(0) translate(4 306.4)">
<title>egraph</title>
<polygon fill="#ffffff" stroke="transparent" points="-4,4 -4,-306.4 462,-306.4 462,4 -4,4"/>
<g id="clust1" class="cluster">
<title>cluster_colored_0</title>
<polygon fill="none" stroke="#ff0000" points="8,-201.6 8,-294.4 184,-294.4 184,-201.6 8,-201.6"/>
</g>
<g id="clust2" class="cluster">
<title>cluster_0</title>
<polygon fill="none" stroke="#000000" stroke-dasharray="1,5" points="102,-209.6 102,-286.4 176,-286.4 176,-209.6 102,-209.6"/>
<text text-anchor="middle" x="139" y="-269.8" font-family="Times,serif" font-size="14.00" fill="#000000">0</text>
</g>
<g id="clust3" class="cluster">
<title>cluster_8</title>
<polygon fill="none" stroke="#000000" stroke-dasharray="1,5" points="16,-209.6 16,-286.4 94,-286.4 94,-209.6 16,-209.6"/>
<text text-anchor="middle" x="55" y="-269.8" font-family="Times,serif" font-size="14.00" fill="#000000">8</text>
</g>
<g id="clust4" class="cluster">
<title>cluster_colored_1</title>
<polygon fill="none" stroke="#ff0000" points="96,-8 96,-193.6 184,-193.6 184,-8 96,-8"/>
</g>
<g id="clust5" class="cluster">
<title>cluster_1</title>
<polygon fill="none" stroke="#000000" stroke-dasharray="1,5" points="106,-16 106,-92.8 176,-92.8 176,-16 106,-16"/>
<text text-anchor="middle" x="141" y="-76.2" font-family="Times,serif" font-size="14.00" fill="#000000">1</text>
</g>
<g id="clust6" class="cluster">
<title>cluster_3</title>
<polygon fill="none" stroke="#000000" stroke-dasharray="1,5" points="104,-108.8 104,-185.6 176,-185.6 176,-108.8 104,-108.8"/>
<text text-anchor="middle" x="140" y="-169" font-family="Times,serif" font-size="14.00" fill="#000000">3</text>
</g>
<g id="clust7" class="cluster">
<title>cluster_colored_2</title>
<polygon fill="none" stroke="#ff0000" points="364,-8 364,-193.6 450,-193.6 450,-8 364,-8"/>
</g>
<g id="clust8" class="cluster">
<title>cluster_2</title>
<polygon fill="none" stroke="#000000" stroke-dasharray="1,5" points="372,-16 372,-92.8 442,-92.8 442,-16 372,-16"/>
<text text-anchor="middle" x="407" y="-76.2" font-family="Times,serif" font-size="14.00" fill="#000000">2</text>
</g>
<g id="clust9" class="cluster">
<title>cluster_4</title>
<polygon fill="none" stroke="#000000" stroke-dasharray="1,5" points="372,-108.8 372,-185.6 442,-185.6 442,-108.8 372,-108.8"/>
<text text-anchor="middle" x="407" y="-169" font-family="Times,serif" font-size="14.00" fill="#000000">4</text>
</g>
<g id="clust10" class="cluster">
<title>cluster_colored_5</title>
<polygon fill="none" stroke="#ff0000" points="192,-100.8 192,-294.4 356,-294.4 356,-100.8 192,-100.8"/>
</g>
<g id="clust11" class="cluster">
<title>cluster_5</title>
<polygon fill="none" stroke="#000000" stroke-dasharray="1,5" points="278,-209.6 278,-286.4 348,-286.4 348,-209.6 278,-209.6"/>
<text text-anchor="middle" x="313" y="-269.8" font-family="Times,serif" font-size="14.00" fill="#000000">5</text>
</g>
<g id="clust12" class="cluster">
<title>cluster_6</title>
<polygon fill="none" stroke="#000000" stroke-dasharray="1,5" points="200,-108.8 200,-185.6 270,-185.6 270,-108.8 200,-108.8"/>
<text text-anchor="middle" x="235" y="-169" font-family="Times,serif" font-size="14.00" fill="#000000">6</text>
</g>
<g id="clust13" class="cluster">
<title>cluster_7</title>
<polygon fill="none" stroke="#000000" stroke-dasharray="1,5" points="200,-209.6 200,-286.4 270,-286.4 270,-209.6 200,-209.6"/>
<text text-anchor="middle" x="235" y="-269.8" font-family="Times,serif" font-size="14.00" fill="#000000">7</text>
</g>
<!-- 0.0 -->
<g id="node1" class="node">
<title>0.0</title>
<ellipse fill="none" stroke="#000000" cx="139" cy="-235.6" rx="29.0299" ry="18"/>
<text text-anchor="middle" x="139" y="-231.4" font-family="Times,serif" font-size="14.00" fill="#000000">false</text>
</g>
<!-- 8.0 -->
<g id="node2" class="node">
<title>8.0</title>
<ellipse fill="none" stroke="#000000" cx="55" cy="-235.6" rx="30.935" ry="18"/>
<text text-anchor="middle" x="55" y="-231.4" font-family="Times,serif" font-size="14.00" fill="#000000">x &lt; y</text>
</g>
<!-- 1.0 -->
<g id="node3" class="node">
<title>1.0</title>
<ellipse fill="none" stroke="#000000" cx="141" cy="-42" rx="27" ry="18"/>
<text text-anchor="middle" x="141" y="-37.8" font-family="Times,serif" font-size="14.00" fill="#000000">x</text>
</g>
<!-- 3.0 -->
<g id="node4" class="node">
<title>3.0</title>
<ellipse fill="none" stroke="#000000" cx="140" cy="-134.8" rx="27.8286" ry="18"/>
<text text-anchor="middle" x="140" y="-130.6" font-family="Times,serif" font-size="14.00" fill="#000000">max</text>
</g>
<!-- 3.0&#45;&gt;1.0 -->
<g id="edge1" class="edge">
<title>3.0:sw-&gt;1.0</title>
<path fill="none" stroke="#000000" d="M125,-119.8C120.2144,-115.0144 117.8519,-109.2043 117.1592,-102.9383"/>
<polygon fill="#000000" stroke="#000000" points="120.661,-102.8581 117.3368,-92.7983 113.6621,-102.7354 120.661,-102.8581"/>
</g>
<!-- 2.0 -->
<g id="node5" class="node">
<title>2.0</title>
<ellipse fill="none" stroke="#000000" cx="407" cy="-42" rx="27" ry="18"/>
<text text-anchor="middle" x="407" y="-37.8" font-family="Times,serif" font-size="14.00" fill="#000000">y</text>
</g>
<!-- 3.0&#45;&gt;2.0 -->
<g id="edge2" class="edge">
<title>3.0:se-&gt;2.0</title>
<path fill="none" stroke="#000000" d="M155,-119.8C185.6061,-89.1939 308.4512,-61.3609 370.6005,-48.8982"/>
<polygon fill="#000000" stroke="#000000" points="365.9237,-56.5715 372,-47.892 361.8373,-50.8878 365.9237,-56.5715"/>
</g>
<!-- 4.0 -->
<g id="node6" class="node">
<title>4.0</title>
<ellipse fill="none" stroke="#000000" cx="407" cy="-134.8" rx="27" ry="18"/>
<text text-anchor="middle" x="407" y="-130.6" font-family="Times,serif" font-size="14.00" fill="#000000">min</text>
</g>
<!-- 4.0&#45;&gt;1.0 -->
<g id="edge3" class="edge">
<title>4.0:sw-&gt;1.0</title>
<path fill="none" stroke="#000000" d="M392,-119.8C361.5048,-89.3048 239.1522,-61.4189 177.2529,-48.9209"/>
<polygon fill="#000000" stroke="#000000" points="185.9786,-51.4701 176,-47.9088 181.5798,-56.9156 185.9786,-51.4701"/>
</g>
<!-- 4.0&#45;&gt;2.0 -->
<g id="edge4" class="edge">
<title>4.0:se-&gt;2.0</title>
<path fill="none" stroke="#000000" d="M422,-119.8C426.7782,-115.0218 429.1703,-109.2126 429.916,-102.9441"/>
<polygon fill="#000000" stroke="#000000" points="433.4149,-102.7707 429.8391,-92.7975 426.4151,-102.8238 433.4149,-102.7707"/>
</g>
<!-- 5.0 -->
<g id="node7" class="node">
<title>5.0</title>
<ellipse fill="none" stroke="#000000" cx="313" cy="-235.6" rx="27" ry="18"/>
<text text-anchor="middle" x="313" y="-231.4" font-family="Times,serif" font-size="14.00" fill="#000000">-</text>
</g>
<!-- 5.0&#45;&gt;3.0 -->
<g id="edge5" class="edge">
<title>5.0:sw-&gt;3.0</title>
<path fill="none" stroke="#000000" d="M298,-220.6C288.3801,-210.9801 286.604,-206.721 274,-201.6 241.7145,-188.4825 227.2878,-208.9458 196,-193.6 191.8675,-191.5731 187.8782,-189.1068 184.0628,-186.3461"/>
<polygon fill="#000000" stroke="#000000" points="185.993,-183.4079 175.9998,-179.8884 181.6171,-188.8715 185.993,-183.4079"/>
</g>
<!-- 5.0&#45;&gt;4.0 -->
<g id="edge6" class="edge">
<title>5.0:se-&gt;4.0</title>
<path fill="none" stroke="#000000" d="M328,-220.6C340.3657,-208.2343 353.3794,-194.4466 365.1965,-181.6039"/>
<polygon fill="#000000" stroke="#000000" points="367.8315,-183.9089 372.0019,-174.1693 362.6681,-179.1823 367.8315,-183.9089"/>
</g>
<!-- 6.0 -->
<g id="node8" class="node">
<title>6.0</title>
<ellipse fill="none" stroke="#000000" cx="235" cy="-134.8" rx="27" ry="18"/>
<text text-anchor="middle" x="235" y="-130.6" font-family="Times,serif" font-size="14.00" fill="#000000">-</text>
</g>
<!-- 6.0&#45;&gt;1.0 -->
<g id="edge7" class="edge">
<title>6.0:sw-&gt;1.0</title>
<path fill="none" stroke="#000000" d="M220,-119.8C208.1308,-107.9308 195.1815,-95.1207 183.265,-83.3878"/>
<polygon fill="#000000" stroke="#000000" points="185.5813,-80.7568 175.9977,-76.2397 180.6727,-85.7474 185.5813,-80.7568"/>
</g>
<!-- 6.0&#45;&gt;2.0 -->
<g id="edge8" class="edge">
<title>6.0:se-&gt;2.0</title>
<path fill="none" stroke="#000000" d="M250,-119.8C281.3713,-88.4287 327.9541,-67.5511 362.2345,-55.3926"/>
<polygon fill="#000000" stroke="#000000" points="363.6753,-58.5987 372,-52.0452 361.4054,-51.9769 363.6753,-58.5987"/>
</g>
<!-- 7.0 -->
<g id="node9" class="node">
<title>7.0</title>
<ellipse fill="none" stroke="#000000" cx="235" cy="-235.6" rx="27" ry="18"/>
<text text-anchor="middle" x="235" y="-231.4" font-family="Times,serif" font-size="14.00" fill="#000000">abs</text>
</g>
<!-- 7.0&#45;&gt;6.0 -->
<g id="edge9" class="edge">
<title>7.0-&gt;6.0</title>
<path fill="none" stroke="#000000" d="M235,-217.579C235,-211.2205 235,-203.6696 235,-195.7552"/>
<polygon fill="#000000" stroke="#000000" points="238.5001,-195.5981 235,-185.5982 231.5001,-195.5982 238.5001,-195.5981"/>
</g>
</g>
</svg>