<?xml version="1.0" encoding="UTF-8" standalone="no"?>
<!DOCTYPE svg PUBLIC "-//W3C//DTD SVG 1.1//EN" "http://www.w3.org/Graphics/SVG/1.1/DTD/svg11.dtd">
<!-- Generated by graphviz version 2.40.1 (20161225.0304)
 -->
<!-- Title: egraph Pages: 1 -->
<svg width="463pt" height="302pt" viewBox="0.00 0.00 462.69 302.40" xmlns="http://www.w3.org/2000/svg" xmlns:xlink="http://www.w3.org/1999/xlink">
<g id="graph0" class="graph" transform="scale(1 1) rotate(0) translate(4 298.4)">
<title>egraph</title>
<polygon fill="#ffffff" stroke="transparent" points="-4,4 -4,-298.4 458.6914,-298.4 458.6914,4 -4,4"/>
<g id="clust1" class="cluster">
<title>cluster_colored_0</title>
<polygon fill="none" stroke="#0000ff" points="8,-193.6 8,-286.4 180,-286.4 180,-193.6 8,-193.6"/>
</g>
<g id="clust2" class="cluster">
<title>cluster_0</title>
<polygon fill="none" stroke="#000000" stroke-dasharray="1,5" points="102,-201.6 102,-278.4 172,-278.4 172,-201.6 102,-201.6"/>
<text text-anchor="middle" x="137" y="-261.8" font-family="Times,serif" font-size="14.00" fill="#000000">0</text>
</g>
<g id="clust3" class="cluster">
<title>cluster_8</title>
<polygon fill="none" stroke="#000000" stroke-dasharray="1,5" points="16,-201.6 16,-278.4 94,-278.4 94,-201.6 16,-201.6"/>
<text text-anchor="middle" x="55" y="-261.8" font-family="Times,serif" font-size="14.00" fill="#000000">8</text>
</g>
<g id="clust4" class="cluster">
<title>cluster_colored_2</title>
<polygon fill="none" stroke="#0000ff" points="185,-8 185,-185.6 273,-185.6 273,-8 185,-8"/>
</g>
<g id="clust5" class="cluster">
<title>cluster_2</title>
<polygon fill="none" stroke="#000000" stroke-dasharray="1,5" points="195,-16 195,-92.8 265,-92.8 265,-16 195,-16"/>
<text text-anchor="middle" x="230" y="-76.2" font-family="Times,serif" font-size="14.00" fill="#000000">2</text>
</g>
<g id="clust6" class="cluster">
<title>cluster_3</title>
<polygon fill="none" stroke="#000000" stroke-dasharray="1,5" points="193,-100.8 193,-177.6 265,-177.6 265,-100.8 193,-100.8"/>
<text text-anchor="middle" x="229" y="-161" font-family="Times,serif" font-size="14.00" fill="#000000">3</text>
</g>
<g id="clust7" class="cluster">
<title>cluster_colored_1</title>
<polygon fill="none" stroke="#0000ff" points="359,-8 359,-185.6 445,-185.6 445,-8 359,-8"/>
</g>
<g id="clust8" class="cluster">
<title>cluster_1</title>
<polygon fill="none" stroke="#000000" stroke-dasharray="1,5" points="367,-16 367,-92.8 437,-92.8 437,-16 367,-16"/>
<text text-anchor="middle" x="402" y="-76.2" font-family="Times,serif" font-size="14.00" fill="#000000">1</text>
</g>
<g id="clust9" class="cluster">
<title>cluster_4</title>
<polygon fill="none" stroke="#000000" stroke-dasharray="1,5" points="367,-100.8 367,-177.6 437,-177.6 437,-100.8 367,-100.8"/>
<text text-anchor="middle" x="402" y="-161" font-family="Times,serif" font-size="14.00" fill="#000000">4</text>
</g>
<g id="clust10" class="cluster">
<title>cluster_colored_5</title>
<polygon fill="none" stroke="#0000ff" points="188,-193.6 188,-286.4 430,-286.4 430,-193.6 188,-193.6"/>
</g>
<g id="clust11" class="cluster">
<title>cluster_5</title>
<polygon fill="none" stroke="#000000" stroke-dasharray="1,5" points="352,-201.6 352,-278.4 422,-278.4 422,-201.6 352,-201.6"/>
<text text-anchor="middle" x="387" y="-261.8" font-family="Times,serif" font-size="14.00" fill="#000000">5</text>
</g>
<g id="clust12" class="cluster">
<title>cluster_7</title>
<polygon fill="none" stroke="#000000" stroke-dasharray="1,5" points="274,-201.6 274,-278.4 344,-278.4 344,-201.6 274,-201.6"/>
<text text-anchor="middle" x="309" y="-261.8" font-family="Times,serif" font-size="14.00" fill="#000000">7</text>
</g>
<g id="clust13" class="cluster">
<title>cluster_9</title>
<polygon fill="none" stroke="#000000" stroke-dasharray="1,5" points="196,-201.6 196,-278.4 266,-278.4 266,-201.6 196,-201.6"/>
<text text-anchor="middle" x="231" y="-261.8" font-family="Times,serif" font-size="14.00" fill="#000000">9</text>
</g>
<g id="clust14" class="cluster">
<title>cluster_6</title>
<polygon fill="none" stroke="#000000" stroke-dasharray="1,5" points="281,-100.8 281,-177.6 351,-177.6 351,-100.8 281,-100.8"/>
<text text-anchor="middle" x="316" y="-161" font-family="Times,serif" font-size="14.00" fill="#000000">6</text>
</g>
<!-- 0.0 -->
<g id="node1" class="node">
<title>0.0</title>
<ellipse fill="none" stroke="#000000" cx="137" cy="-227.6" rx="27" ry="18"/>
<text text-anchor="middle" x="137" y="-223.4" font-family="Times,serif" font-size="14.00" fill="#000000">true</text>
</g>
<!-- 8.0 -->
<g id="node2" class="node">
<title>8.0</title>
<ellipse fill="none" stroke="#000000" cx="55" cy="-227.6" rx="30.935" ry="18"/>
<text text-anchor="middle" x="55" y="-223.4" font-family="Times,serif" font-size="14.00" fill="#000000">x &lt; y</text>
</g>
<!-- 2.0 -->
<g id="node3" class="node">
<title>2.0</title>
<ellipse fill="none" stroke="#000000" cx="230" cy="-42" rx="27" ry="18"/>
<text text-anchor="middle" x="230" y="-37.8" font-family="Times,serif" font-size="14.00" fill="#000000">y</text>
</g>
<!-- 3.0 -->
<g id="node4" class="node">
<title>3.0</title>
<ellipse fill="none" stroke="#000000" cx="229" cy="-126.8" rx="27.8286" ry="18"/>
<text text-anchor="middle" x="229" y="-122.6" font-family="Times,serif" font-size="14.00" fill="#000000">max</text>
</g>
<!-- 3.0&#45;&gt;2.0 -->
<g id="edge2" class="edge">
<title>3.0:se-&gt;2.0</title>
<path fill="none" stroke="#000000" d="M244,-111.8C246.7135,-109.0865 248.5629,-106.0044 249.7178,-102.6831"/>
<polygon fill="#000000" stroke="#000000" points="253.1763,-103.2197 251.2746,-92.797 246.2615,-102.1307 253.1763,-103.2197"/>
</g>
<!-- 1.0 -->
<g id="node5" class="node">
<title>1.0</title>
<ellipse fill="none" stroke="#000000" cx="402" cy="-42" rx="27" ry="18"/>
<text text-anchor="middle" x="402" y="-37.8" font-family="Times,serif" font-size="14.00" fill="#000000">x</text>
</g>
<!-- 3.0&#45;&gt;1.0 -->
<g id="edge1" class="edge">
<title>3.0:sw-&gt;1.0</title>
<path fill="none" stroke="#000000" d="M214,-111.8C195.7129,-93.5129 244.6948,-101.6373 269,-92.8 298.6216,-82.0297 331.733,-69.3846 357.508,-59.4048"/>
<polygon fill="#000000" stroke="#000000" points="358.948,-62.6004 367.0047,-55.72 356.4158,-56.0744 358.948,-62.6004"/>
</g>
<!-- 4.0 -->
<g id="node6" class="node">
<title>4.0</title>
<ellipse fill="none" stroke="#000000" cx="402" cy="-126.8" rx="27" ry="18"/>
<text text-anchor="middle" x="402" y="-122.6" font-family="Times,serif" font-size="14.00" fill="#000000">min</text>
</g>
<!-- 4.0&#45;&gt;2.0 -->
<g id="edge4" class="edge">
<title>4.0:se-&gt;2.0</title>
<path fill="none" stroke="#000000" d="M417,-111.8C434.9904,-93.8096 386.8859,-101.5621 363,-92.8 333.4019,-81.9425 300.2814,-69.2935 274.496,-59.3336"/>
<polygon fill="#000000" stroke="#000000" points="275.5845,-56.0019 264.9953,-55.6573 273.0584,-62.5303 275.5845,-56.0019"/>
</g>
<!-- 4.0&#45;&gt;1.0 -->
<g id="edge3" class="edge">
<title>4.0:sw-&gt;1.0</title>
<path fill="none" stroke="#000000" d="M387,-111.8C384.3647,-109.1647 382.5553,-106.1854 381.4143,-102.9795"/>
<polygon fill="#000000" stroke="#000000" points="384.827,-102.1455 379.8386,-92.7985 377.9094,-103.2162 384.827,-102.1455"/>
</g>
<!-- 5.0 -->
<g id="node7" class="node">
<title>5.0</title>
<ellipse fill="none" stroke="#000000" cx="387" cy="-227.6" rx="27" ry="18"/>
<text text-anchor="middle" x="387" y="-223.4" font-family="Times,serif" font-size="14.00" fill="#000000">-</text>
</g>
<!-- 5.0&#45;&gt;3.0 -->
<g id="edge5" class="edge">
<title>5.0:sw-&gt;3.0</title>
<path fill="none" stroke="#000000" d="M372,-212.6C362.3801,-202.9801 360.5783,-198.7839 348,-193.6 318.6404,-181.5 304.8801,-200.8017 277,-185.6 275.6755,-184.8778 274.3734,-184.1026 273.0945,-183.2806"/>
<polygon fill="#000000" stroke="#000000" points="275.1047,-180.4137 264.9959,-177.2415 270.9202,-186.0252 275.1047,-180.4137"/>
</g>
<!-- 5.0&#45;&gt;4.0 -->
<g id="edge6" class="edge">
<title>5.0:se-&gt;4.0</title>
<path fill="none" stroke="#000000" d="M402,-212.6C408.7349,-205.8651 412.1054,-197.1419 413.3721,-187.8439"/>
<polygon fill="#000000" stroke="#000000" points="416.8816,-187.7855 413.9805,-177.5957 409.8939,-187.3707 416.8816,-187.7855"/>
</g>
<!-- 7.0 -->
<g id="node8" class="node">
<title>7.0</title>
<ellipse fill="none" stroke="#000000" cx="309" cy="-227.6" rx="27" ry="18"/>
<text text-anchor="middle" x="309" y="-223.4" font-family="Times,serif" font-size="14.00" fill="#000000">abs</text>
</g>
<!-- 6.0 -->
<g id="node10" class="node">
<title>6.0</title>
<ellipse fill="none" stroke="#000000" cx="316" cy="-126.8" rx="27" ry="18"/>
<text text-anchor="middle" x="316" y="-122.6" font-family="Times,serif" font-size="14.00" fill="#000000">-</text>
</g>
<!-- 7.0&#45;&gt;6.0 -->
<g id="edge9" class="edge">
<title>7.0-&gt;6.0</title>
<path fill="none" stroke="#000000" d="M310.2515,-209.579C310.693,-203.2205 311.2174,-195.6696 311.767,-187.7552"/>
<polygon fill="#000000" stroke="#000000" points="315.2711,-187.8166 312.4723,-177.5982 308.2879,-187.3316 315.2711,-187.8166"/>
</g>
<!-- 9.0 -->
<g id="node9" class="node">
<title>9.0</title>
<ellipse fill="none" stroke="#000000" cx="231" cy="-227.6" rx="27" ry="18"/>
<text text-anchor="middle" x="231" y="-223.4" font-family="Times,serif" font-size="14.00" fill="#000000">-</text>
</g>
<!-- 9.0&#45;&gt;2.0 -->
<g id="edge10" class="edge">
<title>9.0:sw-&gt;2.0</title>
<path fill="none" stroke="#000000" d="M216,-212.6C204,-200.6 195.4944,-201.2788 189,-185.6 174.5771,-150.78 177.7021,-136.7557 189,-100.8 189.5222,-99.1382 190.1098,-97.4823 190.7542,-95.8366"/>
<polygon fill="#000000" stroke="#000000" points="194.0237,-97.1032 195.0047,-86.5539 187.6592,-94.1889 194.0237,-97.1032"/>
</g>
<!-- 9.0&#45;&gt;1.0 -->
<g id="edge11" class="edge">
<title>9.0:se-&gt;1.0</title>
<path fill="none" stroke="#000000" d="M246,-212.6C255.6199,-202.9801 257.2588,-198.3696 270,-193.6 287.8136,-186.9316 427.8683,-199.3604 441,-185.6 462.3128,-163.2668 455.2305,-130.4939 441.6183,-101.8939"/>
<polygon fill="#000000" stroke="#000000" points="444.639,-100.1117 436.997,-92.7733 438.3948,-103.2756 444.639,-100.1117"/>
</g>
<!-- 6.0&#45;&gt;2.0 -->
<g id="edge8" class="edge">
<title>6.0:se-&gt;2.0</title>
<path fill="none" stroke="#000000" d="M331,-111.8C356.6646,-86.1354 303.4992,-63.7304 265.0191,-51.6039"/>
<polygon fill="#000000" stroke="#000000" points="268.691,-60.5354 265,-50.6042 261.6922,-60.6695 268.691,-60.5354"/>
</g>
<!-- 6.0&#45;&gt;1.0 -->
<g id="edge7" class="edge">
<title>6.0:sw-&gt;1.0</title>
<path fill="none" stroke="#000000" d="M301,-111.8C275.3354,-86.1354 328.5008,-63.7304 366.9809,-51.6039"/>
<polygon fill="#000000" stroke="#000000" points="370.3078,-60.6695 367,-50.6042 363.309,-60.5354 370.3078,-60.6695"/>
</g>
</g>
</svg>