<?xml version="1.0" encoding="UTF-8" standalone="no"?>
<!DOCTYPE svg PUBLIC "-//W3C//DTD SVG 1.1//EN" "http://www.w3.org/Graphics/SVG/1.1/DTD/svg11.dtd">
<!-- Generated by graphviz version 2.40.1 (20161225.0304)
 -->
<!-- Title: egraph Pages: 1 -->
<svg width="399pt" height="286pt" viewBox="0.00 0.00 399.00 286.40" xmlns="http://www.w3.org/2000/svg" xmlns:xlink="http://www.w3.org/1999/xlink">
<g id="graph0" class="graph" transform="scale(1 1) rotate(0) translate(4 282.4)">
<title>egraph</title>
<polygon fill="#ffffff" stroke="transparent" points="-4,4 -4,-282.4 395,-282.4 395,4 -4,4"/>
<g id="clust1" class="cluster">
<title>cluster_colored_0</title>
<polygon fill="none" stroke="#0000ff" points="8,-177.6 8,-270.4 180,-270.4 180,-177.6 8,-177.6"/>
</g>
<g id="clust2" class="cluster">
<title>cluster_0</title>
<polygon fill="none" stroke="#000000" stroke-dasharray="1,5" points="102,-185.6 102,-262.4 172,-262.4 172,-185.6 102,-185.6"/>
<text text-anchor="middle" x="137" y="-245.8" font-family="Times,serif" font-size="14.00" fill="#000000">0</text>
</g>
<g id="clust3" class="cluster">
<title>cluster_8</title>
<polygon fill="none" stroke="#000000" stroke-dasharray="1,5" points="16,-185.6 16,-262.4 94,-262.4 94,-185.6 16,-185.6"/>
<text text-anchor="middle" x="55" y="-245.8" font-family="Times,serif" font-size="14.00" fill="#000000">8</text>
</g>
<g id="clust4" class="cluster">
<title>cluster_1</title>
<polygon fill="none" stroke="#000000" stroke-dasharray="1,5" points="195,-8 195,-84.8 265,-84.8 265,-8 195,-8"/>
<text text-anchor="middle" x="230" y="-68.2" font-family="Times,serif" font-size="14.00" fill="#000000">1</text>
</g>
<g id="clust5" class="cluster">
<title>cluster_2</title>
<polygon fill="none" stroke="#000000" stroke-dasharray="1,5" points="273,-8 273,-84.8 343,-84.8 343,-8 273,-8"/>
<text text-anchor="middle" x="308" y="-68.2" font-family="Times,serif" font-size="14.00" fill="#000000">2</text>
</g>
<g id="clust6" class="cluster">
<title>cluster_3</title>
<polygon fill="none" stroke="#000000" stroke-dasharray="1,5" points="233,-92.8 233,-169.6 305,-169.6 305,-92.8 233,-92.8"/>
<text text-anchor="middle" x="269" y="-153" font-family="Times,serif" font-size="14.00" fill="#000000">3</text>
</g>
<g id="clust7" class="cluster">
<title>cluster_4</title>
<polygon fill="none" stroke="#000000" stroke-dasharray="1,5" points="155,-92.8 155,-169.6 225,-169.6 225,-92.8 155,-92.8"/>
<text text-anchor="middle" x="190" y="-153" font-family="Times,serif" font-size="14.00" fill="#000000">4</text>
</g>
<g id="clust8" class="cluster">
<title>cluster_5</title>
<polygon fill="none" stroke="#000000" stroke-dasharray="1,5" points="188,-185.6 188,-262.4 258,-262.4 258,-185.6 188,-185.6"/>
<text text-anchor="middle" x="223" y="-245.8" font-family="Times,serif" font-size="14.00" fill="#000000">5</text>
</g>
<g id="clust9" class="cluster">
<title>cluster_6</title>
<polygon fill="none" stroke="#000000" stroke-dasharray="1,5" points="313,-92.8 313,-169.6 383,-169.6 383,-92.8 313,-92.8"/>
<text text-anchor="middle" x="348" y="-153" font-family="Times,serif" font-size="14.00" fill="#000000">6</text>
</g>
<g id="clust10" class="cluster">
<title>cluster_7</title>
<polygon fill="none" stroke="#000000" stroke-dasharray="1,5" points="313,-185.6 313,-262.4 383,-262.4 383,-185.6 313,-185.6"/>
<text text-anchor="middle" x="348" y="-245.8" font-family="Times,serif" font-size="14.00" fill="#000000">7</text>
</g>
<!-- 0.0 -->
<g id="node1" class="node">
<title>0.0</title>
<ellipse fill="none" stroke="#000000" cx="137" cy="-211.6" rx="27" ry="18"/>
<text text-anchor="middle" x="137" y="-207.4" font-family="Times,serif" font-size="14.00" fill="#000000">true</text>
</g>
<!-- 8.0 -->
<g id="node2" class="node">
<title>8.0</title>
<ellipse fill="none" stroke="#000000" cx="55" cy="-211.6" rx="30.935" ry="18"/>
<text text-anchor="middle" x="55" y="-207.4" font-family="Times,serif" font-size="14.00" fill="#000000">x &lt; y</text>
</g>
<!-- 1.0 -->
<g id="node3" class="node">
<title>1.0</title>
<ellipse fill="none" stroke="#000000" cx="230" cy="-34" rx="27" ry="18"/>
<text text-anchor="middle" x="230" y="-29.8" font-family="Times,serif" font-size="14.00" fill="#000000">x</text>
</g>
<!-- 2.0 -->
<g id="node4" class="node">
<title>2.0</title>
<ellipse fill="none" stroke="#000000" cx="308" cy="-34" rx="27" ry="18"/>
<text text-anchor="middle" x="308" y="-29.8" font-family="Times,serif" font-size="14.00" fill="#000000">y</text>
</g>
<!-- 3.0 -->
<g id="node5" class="node">
<title>3.0</title>
<ellipse fill="none" stroke="#000000" cx="269" cy="-118.8" rx="27.8286" ry="18"/>
<text text-anchor="middle" x="269" y="-114.6" font-family="Times,serif" font-size="14.00" fill="#000000">max</text>
</g>
<!-- 3.0&#45;&gt;1.0 -->
<g id="edge1" class="edge">
<title>3.0:sw-&gt;1.0</title>
<path fill="none" stroke="#000000" d="M254,-103.8C250.9794,-100.7794 248.3385,-97.3618 246.0296,-93.7019"/>
<polygon fill="#000000" stroke="#000000" points="249.0521,-91.9329 241.2224,-84.7952 242.892,-95.2577 249.0521,-91.9329"/>
</g>
<!-- 3.0&#45;&gt;2.0 -->
<g id="edge2" class="edge">
<title>3.0:se-&gt;2.0</title>
<path fill="none" stroke="#000000" d="M284,-103.8C287.0206,-100.7794 289.6615,-97.3618 291.9704,-93.7019"/>
<polygon fill="#000000" stroke="#000000" points="295.108,-95.2577 296.7776,-84.7952 288.9479,-91.9329 295.108,-95.2577"/>
</g>
<!-- 4.0 -->
<g id="node6" class="node">
<title>4.0</title>
<ellipse fill="none" stroke="#000000" cx="190" cy="-118.8" rx="27" ry="18"/>
<text text-anchor="middle" x="190" y="-114.6" font-family="Times,serif" font-size="14.00" fill="#000000">min</text>
</g>
<!-- 4.0&#45;&gt;1.0 -->
<g id="edge3" class="edge">
<title>4.0:sw-&gt;1.0</title>
<path fill="none" stroke="#000000" d="M175,-103.8C162.4319,-91.2319 172.3144,-75.8397 186.9861,-62.7105"/>
<polygon fill="#000000" stroke="#000000" points="189.5284,-65.1497 195.0016,-56.078 185.0658,-59.7566 189.5284,-65.1497"/>
</g>
<!-- 4.0&#45;&gt;2.0 -->
<g id="edge4" class="edge">
<title>4.0:se-&gt;2.0</title>
<path fill="none" stroke="#000000" d="M205,-103.8C223.7681,-85.0319 240.0135,-97.1834 264.1276,-86.7751"/>
<polygon fill="#000000" stroke="#000000" points="265.8099,-89.8446 273.0022,-82.065 262.5283,-83.6615 265.8099,-89.8446"/>
</g>
<!-- 5.0 -->
<g id="node7" class="node">
<title>5.0</title>
<ellipse fill="none" stroke="#000000" cx="223" cy="-211.6" rx="27" ry="18"/>
<text text-anchor="middle" x="223" y="-207.4" font-family="Times,serif" font-size="14.00" fill="#000000">-</text>
</g>
<!-- 5.0&#45;&gt;3.0 -->
<g id="edge5" class="edge">
<title>5.0:sw-&gt;3.0</title>
<path fill="none" stroke="#000000" d="M208,-196.6C207.9106,-196.5106 216.168,-185.9254 226.6336,-172.591"/>
<polygon fill="#000000" stroke="#000000" points="229.5795,-174.5067 233.0044,-164.4807 224.0747,-170.1826 229.5795,-174.5067"/>
</g>
<!-- 5.0&#45;&gt;4.0 -->
<g id="edge6" class="edge">
<title>5.0:se-&gt;4.0</title>
<path fill="none" stroke="#000000" d="M238,-196.6C240.2041,-194.3959 236.5349,-186.2174 230.3895,-175.9391"/>
<polygon fill="#000000" stroke="#000000" points="233.2672,-173.9398 224.9951,-167.32 227.3335,-177.6535 233.2672,-173.9398"/>
</g>
<!-- 6.0 -->
<g id="node8" class="node">
<title>6.0</title>
<ellipse fill="none" stroke="#000000" cx="348" cy="-118.8" rx="27" ry="18"/>
<text text-anchor="middle" x="348" y="-114.6" font-family="Times,serif" font-size="14.00" fill="#000000">-</text>
</g>
<!-- 6.0&#45;&gt;1.0 -->
<g id="edge7" class="edge">
<title>6.0:sw-&gt;1.0</title>
<path fill="none" stroke="#000000" d="M333,-103.8C314.2319,-85.0319 297.9865,-97.1834 273.8724,-86.7751"/>
<polygon fill="#000000" stroke="#000000" points="275.4717,-83.6615 264.9978,-82.065 272.1901,-89.8446 275.4717,-83.6615"/>
</g>
<!-- 6.0&#45;&gt;2.0 -->
<g id="edge8" class="edge">
<title>6.0:se-&gt;2.0</title>
<path fill="none" stroke="#000000" d="M363,-103.8C375.5681,-91.2319 365.6856,-75.8397 351.0139,-62.7105"/>
<polygon fill="#000000" stroke="#000000" points="352.9342,-59.7566 342.9984,-56.078 348.4716,-65.1497 352.9342,-59.7566"/>
</g>
<!-- 7.0 -->
<g id="node9" class="node">
<title>7.0</title>
<ellipse fill="none" stroke="#000000" cx="348" cy="-211.6" rx="27" ry="18"/>
<text text-anchor="middle" x="348" y="-207.4" font-family="Times,serif" font-size="14.00" fill="#000000">abs</text>
</g>
<!-- 7.0&#45;&gt;6.0 -->
<g id="edge9" class="edge">
<title>7.0-&gt;6.0</title>
<path fill="none" stroke="#000000" d="M348,-193.2657C348,-189.1505 348,-184.5635 348,-179.7435"/>
<polygon fill="#000000" stroke="#000000" points="351.5001,-179.5993 348,-169.5993 344.5001,-179.5994 351.5001,-179.5993"/>
</g>
</g>
</svg>