<?xml version="1.0" encoding="UTF-8" standalone="no"?>
<!DOCTYPE svg PUBLIC "-//W3C//DTD SVG 1.1//EN" "http://www.w3.org/Graphics/SVG/1.1/DTD/svg11.dtd">
<!-- Generated by graphviz version 2.40.1 (20161225.0304)
 -->
<!-- Title: egraph Pages: 1 -->
<svg width="395pt" height="286pt" viewBox="0.00 0.00 395.00 286.40" xmlns="http://www.w3.org/2000/svg" xmlns:xlink="http://www.w3.org/1999/xlink">
<g id="graph0" class="graph" transform="scale(1 1) rotate(0) translate(4 282.4)">
<title>egraph</title>
<polygon fill="#ffffff" stroke="transparent" points="-4,4 -4,-282.4 391,-282.4 391,4 -4,4"/>
<g id="clust1" class="cluster">
<title>cluster_colored_0</title>
<polygon fill="none" stroke="#ff0000" points="8,-177.6 8,-270.4 184,-270.4 184,-177.6 8,-177.6"/>
</g>
<g id="clust2" class="cluster">
<title>cluster_0</title>
<polygon fill="none" stroke="#000000" stroke-dasharray="1,5" points="102,-185.6 102,-262.4 176,-262.4 176,-185.6 102,-185.6"/>
<text text-anchor="middle" x="139" y="-245.8" font-family="Times,serif" font-size="14.00" fill="#000000">0</text>
</g>
<g id="clust3" class="cluster">
<title>cluster_8</title>
<polygon fill="none" stroke="#000000" stroke-dasharray="1,5" points="16,-185.6 16,-262.4 94,-262.4 94,-185.6 16,-185.6"/>
<text text-anchor="middle" x="55" y="-245.8" font-family="Times,serif" font-size="14.00" fill="#000000">8</text>
</g>
<g id="clust4" class="cluster">
<title>cluster_1</title>
<polygon fill="none" stroke="#000000" stroke-dasharray="1,5" points="192,-8 192,-84.8 262,-84.8 262,-8 192,-8"/>
<text text-anchor="middle" x="227" y="-68.2" font-family="Times,serif" font-size="14.00" fill="#000000">1</text>
</g>
<g id="clust5" class="cluster">
<title>cluster_2</title>
<polygon fill="none" stroke="#000000" stroke-dasharray="1,5" points="270,-8 270,-84.8 340,-84.8 340,-8 270,-8"/>
<text text-anchor="middle" x="305" y="-68.2" font-family="Times,serif" font-size="14.00" fill="#000000">2</text>
</g>
<g id="clust6" class="cluster">
<title>cluster_4</title>
<polygon fill="none" stroke="#000000" stroke-dasharray="1,5" points="231,-92.8 231,-169.6 301,-169.6 301,-92.8 231,-92.8"/>
<text text-anchor="middle" x="266" y="-153" font-family="Times,serif" font-size="14.00" fill="#000000">4</text>
</g>
<g id="clust7" class="cluster">
<title>cluster_3</title>
<polygon fill="none" stroke="#000000" stroke-dasharray="1,5" points="151,-92.8 151,-169.6 223,-169.6 223,-92.8 151,-92.8"/>
<text text-anchor="middle" x="187" y="-153" font-family="Times,serif" font-size="14.00" fill="#000000">3</text>
</g>
<g id="clust8" class="cluster">
<title>cluster_5</title>
<polygon fill="none" stroke="#000000" stroke-dasharray="1,5" points="192,-185.6 192,-262.4 262,-262.4 262,-185.6 192,-185.6"/>
<text text-anchor="middle" x="227" y="-245.8" font-family="Times,serif" font-size="14.00" fill="#000000">5</text>
</g>
<g id="clust9" class="cluster">
<title>cluster_6</title>
<polygon fill="none" stroke="#000000" stroke-dasharray="1,5" points="309,-92.8 309,-169.6 379,-169.6 379,-92.8 309,-92.8"/>
<text text-anchor="middle" x="344" y="-153" font-family="Times,serif" font-size="14.00" fill="#000000">6</text>
</g>
<g id="clust10" class="cluster">
<title>cluster_7</title>
<polygon fill="none" stroke="#000000" stroke-dasharray="1,5" points="309,-185.6 309,-262.4 379,-262.4 379,-185.6 309,-185.6"/>
<text text-anchor="middle" x="344" y="-245.8" font-family="Times,serif" font-size="14.00" fill="#000000">7</text>
</g>
<!-- 0.0 -->
<g id="node1" class="node">
<title>0.0</title>
<ellipse fill="none" stroke="#000000" cx="139" cy="-211.6" rx="29.0299" ry="18"/>
<text text-anchor="middle" x="139" y="-207.4" font-family="Times,serif" font-size="14.00" fill="#000000">false</text>
</g>
<!-- 8.0 -->
<g id="node2" class="node">
<title>8.0</title>
<ellipse fill="none" stroke="#000000" cx="55" cy="-211.6" rx="30.935" ry="18"/>
<text text-anchor="middle" x="55" y="-207.4" font-family="Times,serif" font-size="14.00" fill="#000000">x &lt; y</text>
</g>
<!-- 1.0 -->
<g id="node3" class="node">
<title>1.0</title>
<ellipse fill="none" stroke="#000000" cx="227" cy="-34" rx="27" ry="18"/>
<text text-anchor="middle" x="227" y="-29.8" font-family="Times,serif" font-size="14.00" fill="#000000">x</text>
</g>
<!-- 2.0 -->
<g id="node4" class="node">
<title>2.0</title>
<ellipse fill="none" stroke="#000000" cx="305" cy="-34" rx="27" ry="18"/>
<text text-anchor="middle" x="305" y="-29.8" font-family="Times,serif" font-size="14.00" fill="#000000">y</text>
</g>
<!-- 4.0 -->
<g id="node5" class="node">
<title>4.0</title>
<ellipse fill="none" stroke="#000000" cx="266" cy="-118.8" rx="27" ry="18"/>
<text text-anchor="middle" x="266" y="-114.6" font-family="Times,serif" font-size="14.00" fill="#000000">min</text>
</g>
<!-- 4.0&#45;&gt;1.0 -->
<g id="edge3" class="edge">
<title>4.0:sw-&gt;1.0</title>
<path fill="none" stroke="#000000" d="M251,-103.8C247.9794,-100.7794 245.3385,-97.3618 243.0296,-93.7019"/>
<polygon fill="#000000" stroke="#000000" points="246.0521,-91.9329 238.2224,-84.7952 239.892,-95.2577 246.0521,-91.9329"/>
</g>
<!-- 4.0&#45;&gt;2.0 -->
<g id="edge4" class="edge">
<title>4.0:se-&gt;2.0</title>
<path fill="none" stroke="#000000" d="M281,-103.8C284.0206,-100.7794 286.6615,-97.3618 288.9704,-93.7019"/>
<polygon fill="#000000" stroke="#000000" points="292.108,-95.2577 293.7776,-84.7952 285.9479,-91.9329 292.108,-95.2577"/>
</g>
<!-- 3.0 -->
<g id="node6" class="node">
<title>3.0</title>
<ellipse fill="none" stroke="#000000" cx="187" cy="-118.8" rx="27.8286" ry="18"/>
<text text-anchor="middle" x="187" y="-114.6" font-family="Times,serif" font-size="14.00" fill="#000000">max</text>
</g>
<!-- 3.0&#45;&gt;1.0 -->
<g id="edge1" class="edge">
<title>3.0:sw-&gt;1.0</title>
<path fill="none" stroke="#000000" d="M172,-103.8C159.4319,-91.2319 169.3144,-75.8397 183.9861,-62.7105"/>
<polygon fill="#000000" stroke="#000000" points="186.5284,-65.1497 192.0016,-56.078 182.0658,-59.7566 186.5284,-65.1497"/>
</g>
<!-- 3.0&#45;&gt;2.0 -->
<g id="edge2" class="edge">
<title>3.0:se-&gt;2.0</title>
<path fill="none" stroke="#000000" d="M202,-103.8C220.7681,-85.0319 237.0444,-97.233 261.1383,-86.7806"/>
<polygon fill="#000000" stroke="#000000" points="262.8282,-89.8461 270.0035,-82.0509 259.5331,-83.6701 262.8282,-89.8461"/>
</g>
<!-- 5.0 -->
<g id="node7" class="node">
<title>5.0</title>
<ellipse fill="none" stroke="#000000" cx="227" cy="-211.6" rx="27" ry="18"/>
<text text-anchor="middle" x="227" y="-207.4" font-family="Times,serif" font-size="14.00" fill="#000000">-</text>
</g>
<!-- 5.0&#45;&gt;4.0 -->
<g id="edge6" class="edge">
<title>5.0:se-&gt;4.0</title>
<path fill="none" stroke="#000000" d="M242,-196.6C246.9766,-191.6234 250.9252,-185.6397 254.0574,-179.2287"/>
<polygon fill="#000000" stroke="#000000" points="257.4559,-180.1739 258.0871,-169.5979 250.9984,-177.472 257.4559,-180.1739"/>
</g>
<!-- 5.0&#45;&gt;3.0 -->
<g id="edge5" class="edge">
<title>5.0:sw-&gt;3.0</title>
<path fill="none" stroke="#000000" d="M212,-196.6C207.0121,-191.6121 203.0186,-185.6268 199.8215,-179.2199"/>
<polygon fill="#000000" stroke="#000000" points="202.8498,-177.4023 195.684,-169.5983 196.4191,-180.1676 202.8498,-177.4023"/>
</g>
<!-- 6.0 -->
<g id="node8" class="node">
<title>6.0</title>
<ellipse fill="none" stroke="#000000" cx="344" cy="-118.8" rx="27" ry="18"/>
<text text-anchor="middle" x="344" y="-114.6" font-family="Times,serif" font-size="14.00" fill="#000000">-</text>
</g>
<!-- 6.0&#45;&gt;1.0 -->
<g id="edge7" class="edge">
<title>6.0:sw-&gt;1.0</title>
<path fill="none" stroke="#000000" d="M329,-103.8C310.582,-85.382 294.6633,-97.0065 271.0593,-86.8671"/>
<polygon fill="#000000" stroke="#000000" points="272.4695,-83.653 261.9965,-82.0509 269.1845,-89.8344 272.4695,-83.653"/>
</g>
<!-- 6.0&#45;&gt;2.0 -->
<g id="edge8" class="edge">
<title>6.0:se-&gt;2.0</title>
<path fill="none" stroke="#000000" d="M359,-103.8C371.3616,-91.4384 361.9759,-76.2296 347.7733,-63.1676"/>
<polygon fill="#000000" stroke="#000000" points="349.8835,-60.3677 339.9968,-56.5591 345.3505,-65.7018 349.8835,-60.3677"/>
</g>
<!-- 7.0 -->
<g id="node9" class="node">
<title>7.0</title>
<ellipse fill="none" stroke="#000000" cx="344" cy="-211.6" rx="27" ry="18"/>
<text text-anchor="middle" x="344" y="-207.4" font-family="Times,serif" font-size="14.00" fill="#000000">abs</text>
</g>
<!-- 7.0&#45;&gt;6.0 -->
<g id="edge9" class="edge">
<title>7.0-&gt;6.0</title>
<path fill="none" stroke="#000000" d="M344,-193.2657C344,-189.1505 344,-184.5635 344,-179.7435"/>
<polygon fill="#000000" stroke="#000000" points="347.5001,-179.5993 344,-169.5993 340.5001,-179.5994 347.5001,-179.5993"/>
</g>
</g>
</svg>