<?xml version="1.0" encoding="UTF-8" standalone="no"?>
<!DOCTYPE svg PUBLIC "-//W3C//DTD SVG 1.1//EN" "http://www.w3.org/Graphics/SVG/1.1/DTD/svg11.dtd">
<!-- Generated by graphviz version 2.40.1 (20161225.0304)
 -->
<!-- Title: egraph Pages: 1 -->
<svg width="483pt" height="302pt" viewBox="0.00 0.00 483.00 302.40" xmlns="http://www.w3.org/2000/svg" xmlns:xlink="http://www.w3.org/1999/xlink">
<g id="graph0" class="graph" transform="scale(1 1) rotate(0) translate(4 298.4)">
<title>egraph</title>
<polygon fill="#ffffff" stroke="transparent" points="-4,4 -4,-298.4 479,-298.4 479,4 -4,4"/>
<g id="clust1" class="cluster">
<title>cluster_colored_0</title>
<polygon fill="none" stroke="#0000ff" points="8,-193.6 8,-286.4 180,-286.4 180,-193.6 8,-193.6"/>
</g>
<g id="clust2" class="cluster">
<title>cluster_0</title>
<polygon fill="none" stroke="#000000" stroke-dasharray="1,5" points="102,-201.6 102,-278.4 172,-278.4 172,-201.6 102,-201.6"/>
<text text-anchor="middle" x="137" y="-261.8" font-family="Times,serif" font-size="14.00" fill="#000000">0</text>
</g>
<g id="clust3" class="cluster">
<title>cluster_8</title>
<polygon fill="none" stroke="#000000" stroke-dasharray="1,5" points="16,-201.6 16,-278.4 94,-278.4 94,-201.6 16,-201.6"/>
<text text-anchor="middle" x="55" y="-261.8" font-family="Times,serif" font-size="14.00" fill="#000000">8</text>
</g>
<g id="clust4" class="cluster">
<title>cluster_colored_2</title>
<polygon fill="none" stroke="#0000ff" points="376,-8 376,-185.6 464,-185.6 464,-8 376,-8"/>
</g>
<g id="clust5" class="cluster">
<title>cluster_2</title>
<polygon fill="none" stroke="#000000" stroke-dasharray="1,5" points="384,-16 384,-92.8 454,-92.8 454,-16 384,-16"/>
<text text-anchor="middle" x="419" y="-76.2" font-family="Times,serif" font-size="14.00" fill="#000000">2</text>
</g>
<g id="clust6" class="cluster">
<title>cluster_3</title>
<polygon fill="none" stroke="#000000" stroke-dasharray="1,5" points="384,-100.8 384,-177.6 456,-177.6 456,-100.8 384,-100.8"/>
<text text-anchor="middle" x="420" y="-161" font-family="Times,serif" font-size="14.00" fill="#000000">3</text>
</g>
<g id="clust7" class="cluster">
<title>cluster_colored_1</title>
<polygon fill="none" stroke="#0000ff" points="180,-8 180,-185.6 266,-185.6 266,-8 180,-8"/>
</g>
<g id="clust8" class="cluster">
<title>cluster_1</title>
<polygon fill="none" stroke="#000000" stroke-dasharray="1,5" points="188,-16 188,-92.8 258,-92.8 258,-16 188,-16"/>
<text text-anchor="middle" x="223" y="-76.2" font-family="Times,serif" font-size="14.00" fill="#000000">1</text>
</g>
<g id="clust9" class="cluster">
<title>cluster_4</title>
<polygon fill="none" stroke="#000000" stroke-dasharray="1,5" points="188,-100.8 188,-177.6 258,-177.6 258,-100.8 188,-100.8"/>
<text text-anchor="middle" x="223" y="-161" font-family="Times,serif" font-size="14.00" fill="#000000">4</text>
</g>
<g id="clust10" class="cluster">
<title>cluster_colored_7</title>
<polygon fill="none" stroke="#0000ff" points="188,-193.6 188,-286.4 352,-286.4 352,-193.6 188,-193.6"/>
</g>
<g id="clust11" class="cluster">
<title>cluster_7</title>
<polygon fill="none" stroke="#000000" stroke-dasharray="1,5" points="274,-201.6 274,-278.4 344,-278.4 344,-201.6 274,-201.6"/>
<text text-anchor="middle" x="309" y="-261.8" font-family="Times,serif" font-size="14.00" fill="#000000">7</text>
</g>
<g id="clust12" class="cluster">
<title>cluster_9</title>
<polygon fill="none" stroke="#000000" stroke-dasharray="1,5" points="196,-201.6 196,-278.4 266,-278.4 266,-201.6 196,-201.6"/>
<text text-anchor="middle" x="231" y="-261.8" font-family="Times,serif" font-size="14.00" fill="#000000">9</text>
</g>
<g id="clust13" class="cluster">
<title>cluster_5</title>
<polygon fill="none" stroke="#000000" stroke-dasharray="1,5" points="397,-201.6 397,-278.4 467,-278.4 467,-201.6 397,-201.6"/>
<text text-anchor="middle" x="432" y="-261.8" font-family="Times,serif" font-size="14.00" fill="#000000">5</text>
</g>
<g id="clust14" class="cluster">
<title>cluster_6</title>
<polygon fill="none" stroke="#000000" stroke-dasharray="1,5" points="274,-100.8 274,-177.6 344,-177.6 344,-100.8 274,-100.8"/>
<text text-anchor="middle" x="309" y="-161" font-family="Times,serif" font-size="14.00" fill="#000000">6</text>
</g>
<!-- 0.0 -->
<g id="node1" class="node">
<title>0.0</title>
<ellipse fill="none" stroke="#000000" cx="137" cy="-227.6" rx="27" ry="18"/>
<text text-anchor="middle" x="137" y="-223.4" font-family="Times,serif" font-size="14.00" fill="#000000">true</text>
</g>
<!-- 8.0 -->
<g id="node2" class="node">
<title>8.0</title>
<ellipse fill="none" stroke="#000000" cx="55" cy="-227.6" rx="30.935" ry="18"/>
<text text-anchor="middle" x="55" y="-223.4" font-family="Times,serif" font-size="14.00" fill="#000000">x &lt; y</text>
</g>
<!-- 2.0 -->
<g id="node3" class="node">
<title>2.0</title>
<ellipse fill="none" stroke="#000000" cx="419" cy="-42" rx="27" ry="18"/>
<text text-anchor="middle" x="419" y="-37.8" font-family="Times,serif" font-size="14.00" fill="#000000">y</text>
</g>
<!-- 3.0 -->
<g id="node4" class="node">
<title>3.0</title>
<ellipse fill="none" stroke="#000000" cx="420" cy="-126.8" rx="27.8286" ry="18"/>
<text text-anchor="middle" x="420" y="-122.6" font-family="Times,serif" font-size="14.00" fill="#000000">max</text>
</g>
<!-- 3.0&#45;&gt;2.0 -->
<g id="edge2" class="edge">
<title>3.0:se-&gt;2.0</title>
<path fill="none" stroke="#000000" d="M435,-111.8C437.6398,-109.1602 439.4401,-106.1794 440.5617,-102.9738"/>
<polygon fill="#000000" stroke="#000000" points="444.0657,-103.2005 442.0505,-92.7991 437.1394,-102.187 444.0657,-103.2005"/>
</g>
<!-- 1.0 -->
<g id="node5" class="node">
<title>1.0</title>
<ellipse fill="none" stroke="#000000" cx="223" cy="-42" rx="27" ry="18"/>
<text text-anchor="middle" x="223" y="-37.8" font-family="Times,serif" font-size="14.00" fill="#000000">x</text>
</g>
<!-- 3.0&#45;&gt;1.0 -->
<g id="edge1" class="edge">
<title>3.0:sw-&gt;1.0</title>
<path fill="none" stroke="#000000" d="M405,-111.8C385.1936,-91.9936 314.9001,-68.616 267.6955,-54.5676"/>
<polygon fill="#000000" stroke="#000000" points="268.5807,-51.1798 257.9995,-51.7161 266.6057,-57.8954 268.5807,-51.1798"/>
</g>
<!-- 4.0 -->
<g id="node6" class="node">
<title>4.0</title>
<ellipse fill="none" stroke="#000000" cx="223" cy="-126.8" rx="27" ry="18"/>
<text text-anchor="middle" x="223" y="-122.6" font-family="Times,serif" font-size="14.00" fill="#000000">min</text>
</g>
<!-- 4.0&#45;&gt;2.0 -->
<g id="edge4" class="edge">
<title>4.0:se-&gt;2.0</title>
<path fill="none" stroke="#000000" d="M238,-111.8C257.6839,-92.1161 327.4184,-68.7487 374.3573,-54.6626"/>
<polygon fill="#000000" stroke="#000000" points="375.4094,-58.0013 384.0014,-51.8023 373.4189,-51.2903 375.4094,-58.0013"/>
</g>
<!-- 4.0&#45;&gt;1.0 -->
<g id="edge3" class="edge">
<title>4.0:sw-&gt;1.0</title>
<path fill="none" stroke="#000000" d="M208,-111.8C205.3647,-109.1647 203.5553,-106.1854 202.4143,-102.9795"/>
<polygon fill="#000000" stroke="#000000" points="205.827,-102.1455 200.8386,-92.7985 198.9094,-103.2162 205.827,-102.1455"/>
</g>
<!-- 7.0 -->
<g id="node7" class="node">
<title>7.0</title>
<ellipse fill="none" stroke="#000000" cx="309" cy="-227.6" rx="27" ry="18"/>
<text text-anchor="middle" x="309" y="-223.4" font-family="Times,serif" font-size="14.00" fill="#000000">abs</text>
</g>
<!-- 6.0 -->
<g id="node10" class="node">
<title>6.0</title>
<ellipse fill="none" stroke="#000000" cx="309" cy="-126.8" rx="27" ry="18"/>
<text text-anchor="middle" x="309" y="-122.6" font-family="Times,serif" font-size="14.00" fill="#000000">-</text>
</g>
<!-- 7.0&#45;&gt;6.0 -->
<g id="edge9" class="edge">
<title>7.0-&gt;6.0</title>
<path fill="none" stroke="#000000" d="M309,-209.579C309,-203.2205 309,-195.6696 309,-187.7552"/>
<polygon fill="#000000" stroke="#000000" points="312.5001,-187.5981 309,-177.5982 305.5001,-187.5982 312.5001,-187.5981"/>
</g>
<!-- 9.0 -->
<g id="node8" class="node">
<title>9.0</title>
<ellipse fill="none" stroke="#000000" cx="231" cy="-227.6" rx="27" ry="18"/>
<text text-anchor="middle" x="231" y="-223.4" font-family="Times,serif" font-size="14.00" fill="#000000">-</text>
</g>
<!-- 9.0&#45;&gt;2.0 -->
<g id="edge10" class="edge">
<title>9.0:sw-&gt;2.0</title>
<path fill="none" stroke="#000000" d="M216,-212.6C198.0096,-194.6096 245.1724,-199.1588 270,-193.6 287.0033,-189.793 334.1932,-196.2291 348,-185.6 377.5507,-162.8504 364.077,-140.2744 379.9128,-102.2476"/>
<polygon fill="#000000" stroke="#000000" points="383.2663,-103.3379 384.3238,-92.7959 376.9231,-100.3775 383.2663,-103.3379"/>
</g>
<!-- 9.0&#45;&gt;1.0 -->
<g id="edge11" class="edge">
<title>9.0:se-&gt;1.0</title>
<path fill="none" stroke="#000000" d="M246,-212.6C267.2522,-191.3478 200.4719,-210.7393 184,-185.6 163.3443,-154.0755 173.1209,-136.8846 184,-100.8 184.1003,-100.4672 184.2033,-100.1345 184.3087,-99.802"/>
<polygon fill="#000000" stroke="#000000" points="187.661,-100.8369 188.0033,-90.2476 181.1321,-98.3122 187.661,-100.8369"/>
</g>
<!-- 5.0 -->
<g id="node9" class="node">
<title>5.0</title>
<ellipse fill="none" stroke="#000000" cx="432" cy="-227.6" rx="27" ry="18"/>
<text text-anchor="middle" x="432" y="-223.4" font-family="Times,serif" font-size="14.00" fill="#000000">-</text>
</g>
<!-- 5.0&#45;&gt;3.0 -->
<g id="edge5" class="edge">
<title>5.0:sw-&gt;3.0</title>
<path fill="none" stroke="#000000" d="M417,-212.6C410.2626,-205.8626 407.077,-197.1398 406.0896,-187.8434"/>
<polygon fill="#000000" stroke="#000000" points="409.5818,-187.5007 405.8168,-177.5974 402.5843,-187.6871 409.5818,-187.5007"/>
</g>
<!-- 5.0&#45;&gt;4.0 -->
<g id="edge6" class="edge">
<title>5.0:se-&gt;4.0</title>
<path fill="none" stroke="#000000" d="M447,-212.6C478.6805,-180.9195 392.3269,-200.114 348,-193.6 330.7609,-191.0666 285.2968,-193.9435 270,-185.6 268.6709,-184.875 267.3658,-184.0953 266.0853,-183.2672"/>
<polygon fill="#000000" stroke="#000000" points="268.0886,-180.3943 257.9969,-177.1681 263.8741,-185.9834 268.0886,-180.3943"/>
</g>
<!-- 6.0&#45;&gt;2.0 -->
<g id="edge8" class="edge">
<title>6.0:se-&gt;2.0</title>
<path fill="none" stroke="#000000" d="M324,-111.8C339.3938,-96.4062 358.3966,-81.7541 375.3516,-69.885"/>
<polygon fill="#000000" stroke="#000000" points="377.7408,-72.4901 384.0014,-63.9428 373.7771,-66.7204 377.7408,-72.4901"/>
</g>
<!-- 6.0&#45;&gt;1.0 -->
<g id="edge7" class="edge">
<title>6.0:sw-&gt;1.0</title>
<path fill="none" stroke="#000000" d="M294,-111.8C284.7072,-102.5072 274.6718,-92.5777 265.1545,-83.2092"/>
<polygon fill="#000000" stroke="#000000" points="267.5833,-80.6888 257.9984,-76.1742 262.676,-85.6806 267.5833,-80.6888"/>
</g>
</g>
</svg>